<svg id="visual" viewBox="0 0 900 600" width="900" height="600" xmlns="http://www.w3.org/2000/svg" xmlns:xlink="http://www.w3.org/1999/xlink" version="1.1"><path d="M0 49L25 50C50 51 100 53 150 57C200 61 250 67 300 66C350 65 400 57 450 55C500 53 550 57 600 57C650 57 700 53 750 55C800 57 850 65 875 69L900 73L900 0L875 0C850 0 800 0 750 0C700 0 650 0 600 0C550 0 500 0 450 0C400 0 350 0 300 0C250 0 200 0 150 0C100 0 50 0 25 0L0 0Z" fill="#adc8f1"></path><path d="M0 181L25 182C50 183 100 185 150 191C200 197 250 207 300 214C350 221 400 225 450 233C500 241 550 253 600 255C650 257 700 249 750 249C800 249 850 257 875 261L900 265L900 71L875 67C850 63 800 55 750 53C700 51 650 55 600 55C550 55 500 51 450 53C400 55 350 63 300 64C250 65 200 59 150 55C100 51 50 49 25 48L0 47Z" fill="#bed1f0"></path><path d="M0 289L25 290C50 291 100 293 150 291C200 289 250 283 300 290C350 297 400 317 450 329C500 341 550 345 600 345C650 345 700 341 750 339C800 337 850 337 875 337L900 337L900 263L875 259C850 255 800 247 750 247C700 247 650 255 600 253C550 251 500 239 450 231C400 223 350 219 300 212C250 205 200 195 150 189C100 183 50 181 25 180L0 179Z" fill="#cedaef"></path><path d="M0 463L25 467C50 471 100 479 150 484C200 489 250 491 300 489C350 487 400 481 450 479C500 477 550 479 600 487C650 495 700 509 750 508C800 507 850 491 875 483L900 475L900 335L875 335C850 335 800 335 750 337C700 339 650 343 600 343C550 343 500 339 450 327C400 315 350 295 300 288C250 281 200 287 150 289C100 291 50 289 25 288L0 287Z" fill="#dde3ee"></path><path d="M0 601L25 601C50 601 100 601 150 601C200 601 250 601 300 601C350 601 400 601 450 601C500 601 550 601 600 601C650 601 700 601 750 601C800 601 850 601 875 601L900 601L900 473L875 481C850 489 800 505 750 506C700 507 650 493 600 485C550 477 500 475 450 477C400 479 350 485 300 487C250 489 200 487 150 482C100 477 50 469 25 465L0 461Z" fill="#ececec"></path></svg>